<svg xmlns="http://www.w3.org/2000/svg" version="1.1" xmlns:xlink="http://www.w3.org/1999/xlink" xmlns:svgjs="http://svgjs.com/svgjs" width="1000" height="1000"><rect width="1000" height="1000" rx="150" ry="150" fill="#4bbaff"></rect><g transform="matrix(24.9205649205481,0,0,24.9205649205481,180.66800347396259,99.99999772532715)"><svg xmlns="http://www.w3.org/2000/svg" version="1.1" xmlns:xlink="http://www.w3.org/1999/xlink" xmlns:svgjs="http://svgjs.com/svgjs" width="25.628" height="32.102001"><svg xmlns="http://www.w3.org/2000/svg" xml:space="preserve" viewBox="0 0 25.628 32.102001"><path fill="#e6003d" d="M9.374 20.202c1.538 0 2.66.989 2.66 3.295 0 1.002-.478 2.406-1.192 3.462-.101.149-.275.263-.437.313-.096.031-.207.047-.32.047-.535 0-1.176-.334-1.176-.934 0-.173.042-.362.146-.526.305-.533.537-1.159.537-1.581 0-.99-.474-1.509-1.212-1.509-.193 0-.406.035-.634.108-.799.255-1.656.951-3.226 2.994v5c0 .406-.466.903-1.177 1.134-.212.064-.401.097-.563.097-.396 0-.629-.186-.629-.474v-2.732l-.582.753c-.117.124-.232.206-.363.248-.065.02-.132.03-.199.03-.5 0-1.007-.543-1.007-1.056 0-.188.07-.372.202-.531l1.948-2.467v-1.149l-1.149.367c-.06.02-.119.03-.175.03-.347 0-.594-.364-.594-.989 0-.728.333-1.314.769-1.451l1.149-.369v-.654c0-.407.464-.891 1.192-1.123.21-.067.399-.099.561-.099.384 0 .617.177.617.462v2.022c1.191-1.354 2.237-2.097 3.415-2.474.504-.159.99-.244 1.439-.244" style="fill:#fff;fill-opacity:1"></path><g fill="#e6003d" style="fill:#fff;fill-opacity:1"><path d="M145.611 82.757c.389 0 .619.181.619.477v5.842c0 1.121.235 1.612.495 1.703.017.012.033.019.056.019.017 0 .038-.004.061-.013.043-.013.086-.042.145-.119l1.149-1.428c.114-.14.247-.223.394-.271.09-.027.182-.043.275-.043.569 0 1.147.502 1.147 1.04 0 .174-.072.358-.203.516l-2.123 2.583c-.276.336-.568.501-.858.594-.16.051-.319.088-.464.091-.037 0-.072.002-.107.002-1.64 0-2.365-1.564-2.365-3.543V84c0-.42.481-.908 1.206-1.14.217-.069.41-.103.573-.103M153.717 82.919c.234 0 .395.093.449.276.176.642.307 1.488.38 2.205 0 .654-.813 1.133-1.353 1.304-.159.052-.307.076-.437.076-.317 0-.521-.153-.554-.414-.061-.62-.172-1.31-.292-1.853v-.118c0-.435.423-1.094 1.383-1.401.16-.051.303-.075.424-.075" style="fill:#fff;fill-opacity:1" transform="translate(-128.918 -68.987)"></path></g><path fill="#e6003d" d="M9.373 6.432c1.539 0 2.661.991 2.661 3.296 0 1.001-.479 2.404-1.192 3.461-.101.15-.278.263-.436.313-.098.031-.207.046-.319.046-.535 0-1.178-.333-1.178-.932 0-.176.042-.363.146-.527.306-.532.537-1.16.537-1.582 0-.991-.474-1.51-1.213-1.51-.192 0-.406.035-.632.108-.8.257-1.657.953-3.227 2.994v5.002c0 .406-.466.903-1.177 1.131-.212.066-.401.097-.564.097-.395 0-.629-.183-.629-.473v-2.731l-.58.754c-.117.123-.232.206-.365.247-.063.02-.133.028-.199.028-.5 0-1.005-.541-1.005-1.054 0-.189.07-.371.201-.53l1.948-2.469v-1.148l-1.148.369c-.062.017-.119.029-.175.029-.347 0-.594-.365-.594-.99 0-.727.333-1.313.769-1.452l1.148-.367v-.654c0-.406.466-.891 1.194-1.123.208-.068.399-.099.56-.099.384 0 .617.176.617.464v2.02c1.192-1.354 2.236-2.097 3.415-2.473.502-.159.988-.245 1.437-.245" style="fill:#fff;fill-opacity:1"></path><g fill="#e6003d" style="fill:#fff;fill-opacity:1"><path d="M145.611 68.987c.388 0 .618.181.618.477v5.844c0 1.118.235 1.611.497 1.701.016.012.031.018.055.018.016 0 .037-.005.06-.013.044-.013.086-.042.146-.118l1.149-1.429c.117-.137.245-.223.391-.27.09-.029.184-.042.275-.042.57 0 1.149.501 1.149 1.038 0 .175-.073.358-.201.517l-2.124 2.584c-.275.333-.567.499-.857.592-.161.053-.32.089-.464.091-.036.002-.073.002-.107.002-1.639 0-2.363-1.565-2.363-3.542V70.23c0-.421.479-.909 1.205-1.142.214-.068.406-.101.571-.101M153.717 69.147c.234 0 .393.095.45.278.176.641.306 1.487.378 2.206 0 .653-.813 1.132-1.352 1.304-.162.051-.31.075-.435.075-.321 0-.522-.153-.557-.415-.06-.619-.173-1.309-.291-1.853v-.117c0-.436.424-1.094 1.382-1.401.161-.051.302-.077.425-.077" style="fill:#fff;fill-opacity:1" transform="translate(-128.918 -68.987)"></path></g></svg></svg></g></svg>